<mxfile host="app.diagrams.net" modified="2024-05-23T19:22:58.093Z" agent="Mozilla/5.0 (Macintosh; Intel Mac OS X 10_15_7) AppleWebKit/605.1.15 (KHTML, like Gecko) Version/16.3 Safari/605.1.15" etag="01ADy_TM-VbQj1JIJ83i" version="24.4.6" type="github">
  <diagram id="XOnag8xoFiaOOmy9v_93" name="Page-1">
    <mxGraphModel dx="1332" dy="983" grid="1" gridSize="10" guides="1" tooltips="1" connect="1" arrows="1" fold="1" page="1" pageScale="1" pageWidth="2336" pageHeight="1654" math="0" shadow="0">
      <root>
        <mxCell id="_vKOgibNYJb6RkX7hGH7-0" />
        <mxCell id="_vKOgibNYJb6RkX7hGH7-1" parent="_vKOgibNYJb6RkX7hGH7-0" />
        <mxCell id="_vKOgibNYJb6RkX7hGH7-7" value="Customer" style="shape=umlActor;verticalLabelPosition=bottom;verticalAlign=top;html=1;fontFamily=Helvetica;fontSize=12;align=center;strokeColor=#82b366;strokeWidth=1;fillColor=#d5e8d4;" parent="_vKOgibNYJb6RkX7hGH7-1" vertex="1">
          <mxGeometry x="810" y="730" width="30" height="60" as="geometry" />
        </mxCell>
        <mxCell id="_vKOgibNYJb6RkX7hGH7-103" style="edgeStyle=none;rounded=0;jumpStyle=arc;orthogonalLoop=1;jettySize=auto;html=1;fontSize=12;fontColor=#000000;dashed=1;dashPattern=1 4;" parent="_vKOgibNYJb6RkX7hGH7-1" source="_vKOgibNYJb6RkX7hGH7-8" target="_vKOgibNYJb6RkX7hGH7-100" edge="1">
          <mxGeometry relative="1" as="geometry">
            <Array as="points">
              <mxPoint x="1190" y="650" />
              <mxPoint x="1370" y="620" />
              <mxPoint x="1530" y="466" />
            </Array>
          </mxGeometry>
        </mxCell>
        <mxCell id="_vKOgibNYJb6RkX7hGH7-104" value="precedes" style="edgeLabel;html=1;align=center;verticalAlign=middle;resizable=0;points=[];fontSize=12;" parent="_vKOgibNYJb6RkX7hGH7-103" vertex="1" connectable="0">
          <mxGeometry x="0.143" relative="1" as="geometry">
            <mxPoint x="-277.43" y="64.57" as="offset" />
          </mxGeometry>
        </mxCell>
        <mxCell id="_vKOgibNYJb6RkX7hGH7-8" value="Update account details" style="ellipse;whiteSpace=wrap;html=1;rounded=1;strokeWidth=1;fontSize=12;fillColor=#d5e8d4;strokeColor=#82b366;" parent="_vKOgibNYJb6RkX7hGH7-1" vertex="1">
          <mxGeometry x="920" y="710" width="120" height="50" as="geometry" />
        </mxCell>
        <mxCell id="_vKOgibNYJb6RkX7hGH7-73" style="edgeStyle=none;rounded=0;jumpStyle=arc;orthogonalLoop=1;jettySize=auto;html=1;dashed=1;dashPattern=1 4;fontSize=12;fontColor=#000000;" parent="_vKOgibNYJb6RkX7hGH7-1" source="_vKOgibNYJb6RkX7hGH7-9" target="_vKOgibNYJb6RkX7hGH7-8" edge="1">
          <mxGeometry relative="1" as="geometry" />
        </mxCell>
        <mxCell id="_vKOgibNYJb6RkX7hGH7-74" value="extends" style="edgeLabel;html=1;align=center;verticalAlign=middle;resizable=0;points=[];" parent="_vKOgibNYJb6RkX7hGH7-73" vertex="1" connectable="0">
          <mxGeometry x="0.1968" y="1" relative="1" as="geometry">
            <mxPoint x="18.81" y="-7.78" as="offset" />
          </mxGeometry>
        </mxCell>
        <mxCell id="_vKOgibNYJb6RkX7hGH7-105" style="edgeStyle=none;rounded=0;jumpStyle=arc;orthogonalLoop=1;jettySize=auto;html=1;dashed=1;dashPattern=1 4;fontSize=12;fontColor=#000000;" parent="_vKOgibNYJb6RkX7hGH7-1" source="_vKOgibNYJb6RkX7hGH7-9" target="_vKOgibNYJb6RkX7hGH7-58" edge="1">
          <mxGeometry relative="1" as="geometry">
            <Array as="points">
              <mxPoint x="1320" y="695" />
            </Array>
          </mxGeometry>
        </mxCell>
        <mxCell id="_vKOgibNYJb6RkX7hGH7-106" value="precedes" style="edgeLabel;html=1;align=center;verticalAlign=middle;resizable=0;points=[];fontSize=12;" parent="_vKOgibNYJb6RkX7hGH7-105" vertex="1" connectable="0">
          <mxGeometry x="0.2226" y="2" relative="1" as="geometry">
            <mxPoint x="-150.88" y="-29.6" as="offset" />
          </mxGeometry>
        </mxCell>
        <mxCell id="_vKOgibNYJb6RkX7hGH7-9" value="Add delivery address" style="ellipse;whiteSpace=wrap;html=1;rounded=1;strokeWidth=1;fontSize=12;fillColor=#d5e8d4;strokeColor=#82b366;" parent="_vKOgibNYJb6RkX7hGH7-1" vertex="1">
          <mxGeometry x="1120" y="670" width="120" height="50" as="geometry" />
        </mxCell>
        <mxCell id="_vKOgibNYJb6RkX7hGH7-75" style="edgeStyle=none;rounded=0;jumpStyle=arc;orthogonalLoop=1;jettySize=auto;html=1;dashed=1;dashPattern=1 4;fontSize=12;fontColor=#000000;" parent="_vKOgibNYJb6RkX7hGH7-1" source="_vKOgibNYJb6RkX7hGH7-10" target="_vKOgibNYJb6RkX7hGH7-9" edge="1">
          <mxGeometry relative="1" as="geometry" />
        </mxCell>
        <mxCell id="_vKOgibNYJb6RkX7hGH7-76" value="extends" style="edgeLabel;html=1;align=center;verticalAlign=middle;resizable=0;points=[];" parent="_vKOgibNYJb6RkX7hGH7-75" vertex="1" connectable="0">
          <mxGeometry x="0.1401" relative="1" as="geometry">
            <mxPoint as="offset" />
          </mxGeometry>
        </mxCell>
        <mxCell id="_vKOgibNYJb6RkX7hGH7-10" value="Update delivery address" style="ellipse;whiteSpace=wrap;html=1;rounded=1;strokeWidth=1;fontSize=12;fillColor=#d5e8d4;strokeColor=#82b366;" parent="_vKOgibNYJb6RkX7hGH7-1" vertex="1">
          <mxGeometry x="1250" y="735" width="120" height="50" as="geometry" />
        </mxCell>
        <mxCell id="_vKOgibNYJb6RkX7hGH7-77" style="edgeStyle=none;rounded=0;jumpStyle=arc;orthogonalLoop=1;jettySize=auto;html=1;dashed=1;dashPattern=1 4;fontSize=12;fontColor=#000000;" parent="_vKOgibNYJb6RkX7hGH7-1" source="_vKOgibNYJb6RkX7hGH7-12" target="_vKOgibNYJb6RkX7hGH7-10" edge="1">
          <mxGeometry relative="1" as="geometry" />
        </mxCell>
        <mxCell id="_vKOgibNYJb6RkX7hGH7-78" value="extends" style="edgeLabel;html=1;align=center;verticalAlign=middle;resizable=0;points=[];" parent="_vKOgibNYJb6RkX7hGH7-77" vertex="1" connectable="0">
          <mxGeometry x="-0.0124" relative="1" as="geometry">
            <mxPoint as="offset" />
          </mxGeometry>
        </mxCell>
        <mxCell id="_vKOgibNYJb6RkX7hGH7-12" value="Delete delivery address" style="ellipse;whiteSpace=wrap;html=1;rounded=1;strokeWidth=1;fontSize=12;fillColor=#d5e8d4;strokeColor=#82b366;" parent="_vKOgibNYJb6RkX7hGH7-1" vertex="1">
          <mxGeometry x="1390" y="790" width="120" height="50" as="geometry" />
        </mxCell>
        <mxCell id="_vKOgibNYJb6RkX7hGH7-80" style="rounded=0;jumpStyle=arc;orthogonalLoop=1;jettySize=auto;html=1;fontSize=12;fontColor=#000000;dashed=1;dashPattern=1 4;" parent="_vKOgibNYJb6RkX7hGH7-1" source="_vKOgibNYJb6RkX7hGH7-14" target="_vKOgibNYJb6RkX7hGH7-8" edge="1">
          <mxGeometry relative="1" as="geometry" />
        </mxCell>
        <mxCell id="_vKOgibNYJb6RkX7hGH7-81" value="extends" style="edgeLabel;html=1;align=center;verticalAlign=middle;resizable=0;points=[];" parent="_vKOgibNYJb6RkX7hGH7-80" vertex="1" connectable="0">
          <mxGeometry x="-0.4243" relative="1" as="geometry">
            <mxPoint y="-1" as="offset" />
          </mxGeometry>
        </mxCell>
        <mxCell id="_vKOgibNYJb6RkX7hGH7-14" value="Add payment method" style="ellipse;whiteSpace=wrap;html=1;rounded=1;strokeWidth=1;fontSize=12;fillColor=#d5e8d4;strokeColor=#82b366;" parent="_vKOgibNYJb6RkX7hGH7-1" vertex="1">
          <mxGeometry x="1100" y="785" width="120" height="50" as="geometry" />
        </mxCell>
        <mxCell id="_vKOgibNYJb6RkX7hGH7-56" style="edgeStyle=none;rounded=0;orthogonalLoop=1;jettySize=auto;html=1;fontSize=12;fontColor=#000000;dashed=1;dashPattern=1 4;startArrow=classic;startFill=1;endArrow=none;endFill=0;" parent="_vKOgibNYJb6RkX7hGH7-1" source="_vKOgibNYJb6RkX7hGH7-17" target="_vKOgibNYJb6RkX7hGH7-14" edge="1">
          <mxGeometry relative="1" as="geometry" />
        </mxCell>
        <mxCell id="_vKOgibNYJb6RkX7hGH7-57" value="precedes" style="edgeLabel;html=1;align=center;verticalAlign=middle;resizable=0;points=[];" parent="_vKOgibNYJb6RkX7hGH7-56" vertex="1" connectable="0">
          <mxGeometry x="-0.135" y="-2" relative="1" as="geometry">
            <mxPoint as="offset" />
          </mxGeometry>
        </mxCell>
        <mxCell id="_vKOgibNYJb6RkX7hGH7-107" style="edgeStyle=none;rounded=0;jumpStyle=arc;orthogonalLoop=1;jettySize=auto;html=1;dashed=1;dashPattern=1 4;fontSize=12;fontColor=#000000;" parent="_vKOgibNYJb6RkX7hGH7-1" source="_vKOgibNYJb6RkX7hGH7-17" target="_vKOgibNYJb6RkX7hGH7-18" edge="1">
          <mxGeometry relative="1" as="geometry" />
        </mxCell>
        <mxCell id="_vKOgibNYJb6RkX7hGH7-108" value="precedes" style="edgeLabel;html=1;align=center;verticalAlign=middle;resizable=0;points=[];fontSize=12;" parent="_vKOgibNYJb6RkX7hGH7-107" vertex="1" connectable="0">
          <mxGeometry x="-0.6637" y="-1" relative="1" as="geometry">
            <mxPoint as="offset" />
          </mxGeometry>
        </mxCell>
        <mxCell id="_vKOgibNYJb6RkX7hGH7-17" value="Enter payment details" style="ellipse;whiteSpace=wrap;html=1;rounded=1;strokeWidth=1;fontSize=12;fillColor=#d5e8d4;strokeColor=#82b366;" parent="_vKOgibNYJb6RkX7hGH7-1" vertex="1">
          <mxGeometry x="1230" y="852" width="120" height="50" as="geometry" />
        </mxCell>
        <mxCell id="_vKOgibNYJb6RkX7hGH7-18" value="Verify credit card details" style="ellipse;whiteSpace=wrap;html=1;rounded=1;strokeWidth=1;fontSize=12;fillColor=#dae8fc;strokeColor=#6c8ebf;" parent="_vKOgibNYJb6RkX7hGH7-1" vertex="1">
          <mxGeometry x="1530" y="835" width="120" height="50" as="geometry" />
        </mxCell>
        <mxCell id="_vKOgibNYJb6RkX7hGH7-69" style="edgeStyle=none;rounded=0;jumpStyle=arc;orthogonalLoop=1;jettySize=auto;html=1;dashed=1;dashPattern=1 4;fontSize=12;fontColor=#000000;" parent="_vKOgibNYJb6RkX7hGH7-1" source="_vKOgibNYJb6RkX7hGH7-25" target="_vKOgibNYJb6RkX7hGH7-8" edge="1">
          <mxGeometry relative="1" as="geometry" />
        </mxCell>
        <mxCell id="_vKOgibNYJb6RkX7hGH7-70" value="extends" style="edgeLabel;html=1;align=center;verticalAlign=middle;resizable=0;points=[];" parent="_vKOgibNYJb6RkX7hGH7-69" vertex="1" connectable="0">
          <mxGeometry x="-0.3113" relative="1" as="geometry">
            <mxPoint x="1" as="offset" />
          </mxGeometry>
        </mxCell>
        <mxCell id="_vKOgibNYJb6RkX7hGH7-98" style="edgeStyle=none;rounded=0;jumpStyle=arc;orthogonalLoop=1;jettySize=auto;html=1;dashed=1;dashPattern=1 4;fontSize=12;fontColor=#000000;" parent="_vKOgibNYJb6RkX7hGH7-1" source="_vKOgibNYJb6RkX7hGH7-25" target="_vKOgibNYJb6RkX7hGH7-27" edge="1">
          <mxGeometry relative="1" as="geometry" />
        </mxCell>
        <mxCell id="_vKOgibNYJb6RkX7hGH7-99" value="precedes" style="edgeLabel;html=1;align=center;verticalAlign=middle;resizable=0;points=[];fontSize=12;" parent="_vKOgibNYJb6RkX7hGH7-98" vertex="1" connectable="0">
          <mxGeometry x="-0.7135" y="-2" relative="1" as="geometry">
            <mxPoint as="offset" />
          </mxGeometry>
        </mxCell>
        <mxCell id="_vKOgibNYJb6RkX7hGH7-25" value="Change email address (username)" style="ellipse;whiteSpace=wrap;html=1;rounded=1;strokeWidth=1;fontSize=12;fillColor=#d5e8d4;strokeColor=#82b366;" parent="_vKOgibNYJb6RkX7hGH7-1" vertex="1">
          <mxGeometry x="1120" y="570" width="120" height="50" as="geometry" />
        </mxCell>
        <mxCell id="_vKOgibNYJb6RkX7hGH7-111" style="edgeStyle=none;rounded=0;jumpStyle=arc;orthogonalLoop=1;jettySize=auto;html=1;dashed=1;dashPattern=1 4;startArrow=none;startFill=0;endArrow=classic;endFill=1;fontSize=12;fontColor=#000000;" parent="_vKOgibNYJb6RkX7hGH7-1" source="_vKOgibNYJb6RkX7hGH7-27" target="_vKOgibNYJb6RkX7hGH7-29" edge="1">
          <mxGeometry relative="1" as="geometry" />
        </mxCell>
        <mxCell id="_vKOgibNYJb6RkX7hGH7-112" value="precedes" style="edgeLabel;html=1;align=center;verticalAlign=middle;resizable=0;points=[];fontSize=12;" parent="_vKOgibNYJb6RkX7hGH7-111" vertex="1" connectable="0">
          <mxGeometry x="-0.0258" y="3" relative="1" as="geometry">
            <mxPoint as="offset" />
          </mxGeometry>
        </mxCell>
        <mxCell id="_vKOgibNYJb6RkX7hGH7-27" value="Verify email is unique" style="ellipse;whiteSpace=wrap;html=1;rounded=1;strokeWidth=1;fontSize=12;fillColor=#dae8fc;strokeColor=#6c8ebf;" parent="_vKOgibNYJb6RkX7hGH7-1" vertex="1">
          <mxGeometry x="1520" y="580" width="120" height="50" as="geometry" />
        </mxCell>
        <mxCell id="_vKOgibNYJb6RkX7hGH7-29" value="Send confirmation link via email" style="ellipse;whiteSpace=wrap;html=1;rounded=1;strokeWidth=1;fontSize=12;fillColor=#dae8fc;strokeColor=#6c8ebf;" parent="_vKOgibNYJb6RkX7hGH7-1" vertex="1">
          <mxGeometry x="1530" y="500" width="120" height="50" as="geometry" />
        </mxCell>
        <mxCell id="_vKOgibNYJb6RkX7hGH7-35" value="Customer database" style="shape=cylinder3;whiteSpace=wrap;html=1;boundedLbl=1;backgroundOutline=1;size=15;rounded=1;strokeWidth=1;fillColor=#dae8fc;strokeColor=#6c8ebf;" parent="_vKOgibNYJb6RkX7hGH7-1" vertex="1">
          <mxGeometry x="1785" y="595" width="60" height="80" as="geometry" />
        </mxCell>
        <mxCell id="_vKOgibNYJb6RkX7hGH7-36" style="edgeStyle=none;rounded=0;orthogonalLoop=1;jettySize=auto;html=1;exitX=0;exitY=1;exitDx=0;exitDy=-15;exitPerimeter=0;dashed=1;dashPattern=1 4;fontSize=12;fontColor=#000000;" parent="_vKOgibNYJb6RkX7hGH7-1" source="_vKOgibNYJb6RkX7hGH7-35" target="_vKOgibNYJb6RkX7hGH7-35" edge="1">
          <mxGeometry relative="1" as="geometry" />
        </mxCell>
        <mxCell id="_vKOgibNYJb6RkX7hGH7-37" value="System" style="shape=umlActor;verticalLabelPosition=bottom;verticalAlign=top;html=1;outlineConnect=0;rounded=1;strokeWidth=1;fillColor=#dae8fc;strokeColor=#6c8ebf;" parent="_vKOgibNYJb6RkX7hGH7-1" vertex="1">
          <mxGeometry x="1735" y="705" width="30" height="60" as="geometry" />
        </mxCell>
        <mxCell id="_vKOgibNYJb6RkX7hGH7-42" style="edgeStyle=none;rounded=0;orthogonalLoop=1;jettySize=auto;html=1;dashed=1;dashPattern=1 4;fontSize=12;fontColor=#000000;" parent="_vKOgibNYJb6RkX7hGH7-1" source="_vKOgibNYJb6RkX7hGH7-40" target="_vKOgibNYJb6RkX7hGH7-8" edge="1">
          <mxGeometry relative="1" as="geometry" />
        </mxCell>
        <mxCell id="_vKOgibNYJb6RkX7hGH7-43" value="includes" style="edgeLabel;html=1;align=center;verticalAlign=middle;resizable=0;points=[];" parent="_vKOgibNYJb6RkX7hGH7-42" vertex="1" connectable="0">
          <mxGeometry x="-0.2399" y="1" relative="1" as="geometry">
            <mxPoint x="-1" y="-9" as="offset" />
          </mxGeometry>
        </mxCell>
        <mxCell id="_vKOgibNYJb6RkX7hGH7-94" style="edgeStyle=none;rounded=0;jumpStyle=arc;orthogonalLoop=1;jettySize=auto;html=1;dashed=1;dashPattern=1 4;fontSize=12;fontColor=#000000;" parent="_vKOgibNYJb6RkX7hGH7-1" source="_vKOgibNYJb6RkX7hGH7-40" target="_vKOgibNYJb6RkX7hGH7-25" edge="1">
          <mxGeometry relative="1" as="geometry" />
        </mxCell>
        <mxCell id="_vKOgibNYJb6RkX7hGH7-95" value="includes" style="edgeLabel;html=1;align=center;verticalAlign=middle;resizable=0;points=[];fontSize=12;" parent="_vKOgibNYJb6RkX7hGH7-94" vertex="1" connectable="0">
          <mxGeometry x="-0.4653" y="2" relative="1" as="geometry">
            <mxPoint x="15.21" as="offset" />
          </mxGeometry>
        </mxCell>
        <mxCell id="_vKOgibNYJb6RkX7hGH7-40" value="Register" style="ellipse;whiteSpace=wrap;html=1;rounded=1;strokeWidth=1;fontSize=12;fillColor=#d5e8d4;strokeColor=#82b366;" parent="_vKOgibNYJb6RkX7hGH7-1" vertex="1">
          <mxGeometry x="920" y="610" width="120" height="50" as="geometry" />
        </mxCell>
        <mxCell id="_vKOgibNYJb6RkX7hGH7-96" style="edgeStyle=none;rounded=0;jumpStyle=arc;orthogonalLoop=1;jettySize=auto;html=1;dashed=1;dashPattern=1 4;fontSize=12;fontColor=#000000;" parent="_vKOgibNYJb6RkX7hGH7-1" source="_vKOgibNYJb6RkX7hGH7-41" target="_vKOgibNYJb6RkX7hGH7-86" edge="1">
          <mxGeometry relative="1" as="geometry">
            <Array as="points">
              <mxPoint x="1110" y="980" />
              <mxPoint x="1490" y="980" />
              <mxPoint x="1550" y="740" />
              <mxPoint x="1560" y="720" />
            </Array>
          </mxGeometry>
        </mxCell>
        <mxCell id="_vKOgibNYJb6RkX7hGH7-97" value="precedes" style="edgeLabel;html=1;align=center;verticalAlign=middle;resizable=0;points=[];fontSize=12;" parent="_vKOgibNYJb6RkX7hGH7-96" vertex="1" connectable="0">
          <mxGeometry x="-0.8699" y="3" relative="1" as="geometry">
            <mxPoint as="offset" />
          </mxGeometry>
        </mxCell>
        <mxCell id="_vKOgibNYJb6RkX7hGH7-113" style="edgeStyle=none;rounded=0;jumpStyle=arc;orthogonalLoop=1;jettySize=auto;html=1;dashed=1;dashPattern=1 4;startArrow=none;startFill=0;endArrow=classic;endFill=1;fontSize=12;fontColor=#000000;" parent="_vKOgibNYJb6RkX7hGH7-1" source="_vKOgibNYJb6RkX7hGH7-41" target="_vKOgibNYJb6RkX7hGH7-44" edge="1">
          <mxGeometry relative="1" as="geometry" />
        </mxCell>
        <mxCell id="_vKOgibNYJb6RkX7hGH7-114" value="precedes" style="edgeLabel;html=1;align=center;verticalAlign=middle;resizable=0;points=[];fontSize=12;" parent="_vKOgibNYJb6RkX7hGH7-113" vertex="1" connectable="0">
          <mxGeometry x="0.0983" y="1" relative="1" as="geometry">
            <mxPoint as="offset" />
          </mxGeometry>
        </mxCell>
        <mxCell id="_vKOgibNYJb6RkX7hGH7-115" style="edgeStyle=none;rounded=0;jumpStyle=arc;orthogonalLoop=1;jettySize=auto;html=1;dashed=1;dashPattern=1 4;startArrow=none;startFill=0;endArrow=classic;endFill=1;fontSize=12;fontColor=#000000;" parent="_vKOgibNYJb6RkX7hGH7-1" source="_vKOgibNYJb6RkX7hGH7-41" target="_vKOgibNYJb6RkX7hGH7-8" edge="1">
          <mxGeometry relative="1" as="geometry">
            <Array as="points">
              <mxPoint x="1080" y="886" />
              <mxPoint x="1070" y="820" />
              <mxPoint x="990" y="770" />
            </Array>
          </mxGeometry>
        </mxCell>
        <mxCell id="_vKOgibNYJb6RkX7hGH7-116" value="precedes" style="edgeLabel;html=1;align=center;verticalAlign=middle;resizable=0;points=[];fontSize=12;" parent="_vKOgibNYJb6RkX7hGH7-115" vertex="1" connectable="0">
          <mxGeometry x="-0.6434" y="-1" relative="1" as="geometry">
            <mxPoint as="offset" />
          </mxGeometry>
        </mxCell>
        <mxCell id="_vKOgibNYJb6RkX7hGH7-41" value="Login" style="ellipse;whiteSpace=wrap;html=1;rounded=1;strokeWidth=1;fontSize=12;fillColor=#d5e8d4;strokeColor=#82b366;" parent="_vKOgibNYJb6RkX7hGH7-1" vertex="1">
          <mxGeometry x="940" y="885" width="120" height="50" as="geometry" />
        </mxCell>
        <mxCell id="_vKOgibNYJb6RkX7hGH7-44" value="View account" style="ellipse;whiteSpace=wrap;html=1;rounded=1;strokeWidth=1;fontSize=12;fillColor=#d5e8d4;strokeColor=#82b366;" parent="_vKOgibNYJb6RkX7hGH7-1" vertex="1">
          <mxGeometry x="930" y="795" width="120" height="50" as="geometry" />
        </mxCell>
        <mxCell id="_vKOgibNYJb6RkX7hGH7-92" style="edgeStyle=none;rounded=0;jumpStyle=arc;orthogonalLoop=1;jettySize=auto;html=1;dashed=1;dashPattern=1 4;fontSize=12;fontColor=#000000;startArrow=classic;startFill=1;endArrow=none;endFill=0;" parent="_vKOgibNYJb6RkX7hGH7-1" source="_vKOgibNYJb6RkX7hGH7-49" target="_vKOgibNYJb6RkX7hGH7-29" edge="1">
          <mxGeometry relative="1" as="geometry" />
        </mxCell>
        <mxCell id="_vKOgibNYJb6RkX7hGH7-93" value="precedes" style="edgeLabel;html=1;align=center;verticalAlign=middle;resizable=0;points=[];fontSize=12;" parent="_vKOgibNYJb6RkX7hGH7-92" vertex="1" connectable="0">
          <mxGeometry x="-0.7776" relative="1" as="geometry">
            <mxPoint as="offset" />
          </mxGeometry>
        </mxCell>
        <mxCell id="_vKOgibNYJb6RkX7hGH7-49" value="Confirm email address" style="ellipse;whiteSpace=wrap;html=1;rounded=1;strokeWidth=1;fontSize=12;fillColor=#d5e8d4;strokeColor=#82b366;" parent="_vKOgibNYJb6RkX7hGH7-1" vertex="1">
          <mxGeometry x="960" y="510" width="120" height="50" as="geometry" />
        </mxCell>
        <mxCell id="_vKOgibNYJb6RkX7hGH7-50" value="Third-party payment &lt;br&gt;verification service" style="shape=umlActor;verticalLabelPosition=bottom;verticalAlign=top;html=1;outlineConnect=0;rounded=1;strokeWidth=1;fillColor=#f8cecc;strokeColor=#b85450;" parent="_vKOgibNYJb6RkX7hGH7-1" vertex="1">
          <mxGeometry x="1735" y="830" width="30" height="60" as="geometry" />
        </mxCell>
        <mxCell id="_vKOgibNYJb6RkX7hGH7-88" style="edgeStyle=none;rounded=0;jumpStyle=arc;orthogonalLoop=1;jettySize=auto;html=1;fontSize=12;fontColor=#000000;dashed=1;dashPattern=1 4;" parent="_vKOgibNYJb6RkX7hGH7-1" source="_vKOgibNYJb6RkX7hGH7-27" target="_vKOgibNYJb6RkX7hGH7-86" edge="1">
          <mxGeometry relative="1" as="geometry" />
        </mxCell>
        <mxCell id="_vKOgibNYJb6RkX7hGH7-89" value="includes" style="edgeLabel;html=1;align=center;verticalAlign=middle;resizable=0;points=[];" parent="_vKOgibNYJb6RkX7hGH7-88" vertex="1" connectable="0">
          <mxGeometry x="-0.1916" y="1" relative="1" as="geometry">
            <mxPoint x="-1" as="offset" />
          </mxGeometry>
        </mxCell>
        <mxCell id="_vKOgibNYJb6RkX7hGH7-58" value="Verify valid address" style="ellipse;whiteSpace=wrap;html=1;rounded=1;strokeWidth=1;fontSize=12;fillColor=#dae8fc;strokeColor=#6c8ebf;" parent="_vKOgibNYJb6RkX7hGH7-1" vertex="1">
          <mxGeometry x="1550" y="750" width="120" height="50" as="geometry" />
        </mxCell>
        <mxCell id="_vKOgibNYJb6RkX7hGH7-60" value="MAP API" style="shape=umlActor;verticalLabelPosition=bottom;verticalAlign=top;html=1;outlineConnect=0;rounded=1;strokeWidth=1;fillColor=#f8cecc;strokeColor=#b85450;" parent="_vKOgibNYJb6RkX7hGH7-1" vertex="1">
          <mxGeometry x="1800" y="790" width="30" height="60" as="geometry" />
        </mxCell>
        <mxCell id="_vKOgibNYJb6RkX7hGH7-86" value="Check for existing account" style="ellipse;whiteSpace=wrap;html=1;rounded=1;strokeWidth=1;fontSize=12;fillColor=#dae8fc;strokeColor=#6c8ebf;" parent="_vKOgibNYJb6RkX7hGH7-1" vertex="1">
          <mxGeometry x="1520" y="660" width="120" height="50" as="geometry" />
        </mxCell>
        <mxCell id="_vKOgibNYJb6RkX7hGH7-100" value="Update customer database" style="ellipse;whiteSpace=wrap;html=1;rounded=1;strokeWidth=1;fontSize=12;fillColor=#dae8fc;strokeColor=#6c8ebf;" parent="_vKOgibNYJb6RkX7hGH7-1" vertex="1">
          <mxGeometry x="1590" y="440" width="120" height="50" as="geometry" />
        </mxCell>
        <mxCell id="_vKOgibNYJb6RkX7hGH7-24" style="edgeStyle=none;rounded=0;orthogonalLoop=1;jettySize=auto;html=1;fontSize=12;fontColor=#000000;" parent="_vKOgibNYJb6RkX7hGH7-1" source="_vKOgibNYJb6RkX7hGH7-7" target="_vKOgibNYJb6RkX7hGH7-8" edge="1">
          <mxGeometry relative="1" as="geometry" />
        </mxCell>
        <mxCell id="_vKOgibNYJb6RkX7hGH7-45" style="edgeStyle=none;rounded=0;orthogonalLoop=1;jettySize=auto;html=1;fontSize=12;fontColor=#000000;" parent="_vKOgibNYJb6RkX7hGH7-1" source="_vKOgibNYJb6RkX7hGH7-7" target="_vKOgibNYJb6RkX7hGH7-44" edge="1">
          <mxGeometry relative="1" as="geometry" />
        </mxCell>
        <mxCell id="_vKOgibNYJb6RkX7hGH7-46" style="edgeStyle=none;rounded=0;orthogonalLoop=1;jettySize=auto;html=1;fontSize=12;fontColor=#000000;" parent="_vKOgibNYJb6RkX7hGH7-1" source="_vKOgibNYJb6RkX7hGH7-7" target="_vKOgibNYJb6RkX7hGH7-41" edge="1">
          <mxGeometry relative="1" as="geometry" />
        </mxCell>
        <mxCell id="_vKOgibNYJb6RkX7hGH7-47" style="edgeStyle=none;rounded=0;orthogonalLoop=1;jettySize=auto;html=1;fontSize=12;fontColor=#000000;" parent="_vKOgibNYJb6RkX7hGH7-1" source="_vKOgibNYJb6RkX7hGH7-7" target="_vKOgibNYJb6RkX7hGH7-40" edge="1">
          <mxGeometry relative="1" as="geometry" />
        </mxCell>
        <mxCell id="_vKOgibNYJb6RkX7hGH7-64" style="edgeStyle=none;rounded=0;jumpStyle=arc;orthogonalLoop=1;jettySize=auto;html=1;fontSize=12;fontColor=#000000;" parent="_vKOgibNYJb6RkX7hGH7-1" source="_vKOgibNYJb6RkX7hGH7-7" target="_vKOgibNYJb6RkX7hGH7-49" edge="1">
          <mxGeometry relative="1" as="geometry">
            <Array as="points">
              <mxPoint x="920" y="610" />
            </Array>
          </mxGeometry>
        </mxCell>
        <mxCell id="_vKOgibNYJb6RkX7hGH7-83" style="edgeStyle=none;rounded=0;jumpStyle=arc;orthogonalLoop=1;jettySize=auto;html=1;fontSize=12;fontColor=#000000;" parent="_vKOgibNYJb6RkX7hGH7-1" source="_vKOgibNYJb6RkX7hGH7-8" target="_vKOgibNYJb6RkX7hGH7-37" edge="1">
          <mxGeometry relative="1" as="geometry">
            <Array as="points">
              <mxPoint x="1230" y="930" />
              <mxPoint x="1850" y="930" />
              <mxPoint x="1890" y="800" />
            </Array>
          </mxGeometry>
        </mxCell>
        <mxCell id="_vKOgibNYJb6RkX7hGH7-51" style="edgeStyle=none;rounded=0;orthogonalLoop=1;jettySize=auto;html=1;fontSize=12;fontColor=#000000;" parent="_vKOgibNYJb6RkX7hGH7-1" source="_vKOgibNYJb6RkX7hGH7-18" target="_vKOgibNYJb6RkX7hGH7-50" edge="1">
          <mxGeometry relative="1" as="geometry" />
        </mxCell>
        <mxCell id="_vKOgibNYJb6RkX7hGH7-84" style="edgeStyle=none;rounded=0;jumpStyle=arc;orthogonalLoop=1;jettySize=auto;html=1;fontSize=12;fontColor=#000000;" parent="_vKOgibNYJb6RkX7hGH7-1" source="_vKOgibNYJb6RkX7hGH7-29" target="_vKOgibNYJb6RkX7hGH7-7" edge="1">
          <mxGeometry relative="1" as="geometry">
            <Array as="points">
              <mxPoint x="970" y="490" />
              <mxPoint x="890" y="610" />
            </Array>
          </mxGeometry>
        </mxCell>
        <mxCell id="_vKOgibNYJb6RkX7hGH7-52" style="edgeStyle=none;rounded=0;orthogonalLoop=1;jettySize=auto;html=1;fontSize=12;fontColor=#000000;" parent="_vKOgibNYJb6RkX7hGH7-1" source="_vKOgibNYJb6RkX7hGH7-37" target="_vKOgibNYJb6RkX7hGH7-18" edge="1">
          <mxGeometry relative="1" as="geometry" />
        </mxCell>
        <mxCell id="_vKOgibNYJb6RkX7hGH7-53" style="edgeStyle=none;rounded=0;orthogonalLoop=1;jettySize=auto;html=1;fontSize=12;fontColor=#000000;" parent="_vKOgibNYJb6RkX7hGH7-1" source="_vKOgibNYJb6RkX7hGH7-37" target="_vKOgibNYJb6RkX7hGH7-27" edge="1">
          <mxGeometry relative="1" as="geometry" />
        </mxCell>
        <mxCell id="_vKOgibNYJb6RkX7hGH7-54" style="edgeStyle=none;rounded=0;orthogonalLoop=1;jettySize=auto;html=1;fontSize=12;fontColor=#000000;" parent="_vKOgibNYJb6RkX7hGH7-1" source="_vKOgibNYJb6RkX7hGH7-37" target="_vKOgibNYJb6RkX7hGH7-35" edge="1">
          <mxGeometry relative="1" as="geometry" />
        </mxCell>
        <mxCell id="_vKOgibNYJb6RkX7hGH7-55" style="edgeStyle=none;rounded=0;orthogonalLoop=1;jettySize=auto;html=1;fontSize=12;fontColor=#000000;" parent="_vKOgibNYJb6RkX7hGH7-1" source="_vKOgibNYJb6RkX7hGH7-37" target="_vKOgibNYJb6RkX7hGH7-29" edge="1">
          <mxGeometry relative="1" as="geometry" />
        </mxCell>
        <mxCell id="_vKOgibNYJb6RkX7hGH7-59" style="edgeStyle=none;rounded=0;orthogonalLoop=1;jettySize=auto;html=1;fontSize=12;fontColor=#000000;" parent="_vKOgibNYJb6RkX7hGH7-1" source="_vKOgibNYJb6RkX7hGH7-37" target="_vKOgibNYJb6RkX7hGH7-58" edge="1">
          <mxGeometry relative="1" as="geometry" />
        </mxCell>
        <mxCell id="_vKOgibNYJb6RkX7hGH7-87" style="edgeStyle=none;rounded=0;jumpStyle=arc;orthogonalLoop=1;jettySize=auto;html=1;fontSize=12;fontColor=#000000;" parent="_vKOgibNYJb6RkX7hGH7-1" source="_vKOgibNYJb6RkX7hGH7-37" target="_vKOgibNYJb6RkX7hGH7-86" edge="1">
          <mxGeometry relative="1" as="geometry" />
        </mxCell>
        <mxCell id="_vKOgibNYJb6RkX7hGH7-101" style="edgeStyle=none;rounded=0;jumpStyle=arc;orthogonalLoop=1;jettySize=auto;html=1;fontSize=12;fontColor=#000000;" parent="_vKOgibNYJb6RkX7hGH7-1" source="_vKOgibNYJb6RkX7hGH7-37" target="_vKOgibNYJb6RkX7hGH7-100" edge="1">
          <mxGeometry relative="1" as="geometry" />
        </mxCell>
        <mxCell id="_vKOgibNYJb6RkX7hGH7-85" style="edgeStyle=none;rounded=0;jumpStyle=arc;orthogonalLoop=1;jettySize=auto;html=1;fontSize=12;fontColor=#000000;" parent="_vKOgibNYJb6RkX7hGH7-1" source="_vKOgibNYJb6RkX7hGH7-41" target="_vKOgibNYJb6RkX7hGH7-37" edge="1">
          <mxGeometry relative="1" as="geometry">
            <Array as="points">
              <mxPoint x="1130" y="950" />
              <mxPoint x="1870" y="950" />
              <mxPoint x="1910" y="780" />
              <mxPoint x="1800" y="710" />
            </Array>
          </mxGeometry>
        </mxCell>
        <mxCell id="_vKOgibNYJb6RkX7hGH7-118" style="edgeStyle=none;rounded=0;jumpStyle=arc;orthogonalLoop=1;jettySize=auto;html=1;startArrow=none;startFill=0;endArrow=classic;endFill=1;fontSize=12;fontColor=#000000;" parent="_vKOgibNYJb6RkX7hGH7-1" source="_vKOgibNYJb6RkX7hGH7-44" target="_vKOgibNYJb6RkX7hGH7-37" edge="1">
          <mxGeometry relative="1" as="geometry">
            <Array as="points">
              <mxPoint x="1220" y="940" />
              <mxPoint x="1860" y="940" />
              <mxPoint x="1900" y="790" />
              <mxPoint x="1810" y="735" />
            </Array>
          </mxGeometry>
        </mxCell>
        <mxCell id="_vKOgibNYJb6RkX7hGH7-61" style="edgeStyle=none;rounded=0;orthogonalLoop=1;jettySize=auto;html=1;fontSize=12;fontColor=#000000;jumpStyle=arc;" parent="_vKOgibNYJb6RkX7hGH7-1" source="_vKOgibNYJb6RkX7hGH7-58" target="_vKOgibNYJb6RkX7hGH7-60" edge="1">
          <mxGeometry relative="1" as="geometry" />
        </mxCell>
        <mxCell id="_vKOgibNYJb6RkX7hGH7-119" value="Use case example - Customer updates account" style="text;html=1;strokeColor=none;fillColor=none;align=center;verticalAlign=middle;whiteSpace=wrap;rounded=0;fontSize=12;fontStyle=2" parent="_vKOgibNYJb6RkX7hGH7-1" vertex="1">
          <mxGeometry x="1160" y="1020" width="390" height="20" as="geometry" />
        </mxCell>
      </root>
    </mxGraphModel>
  </diagram>
</mxfile>
